<?xml version="1.0" standalone="no"?>
<!DOCTYPE svg PUBLIC "-//W3C//DTD SVG 20010904//EN"
 "http://www.w3.org/TR/2001/REC-SVG-20010904/DTD/svg10.dtd">
<svg version="1.0" xmlns="http://www.w3.org/2000/svg"
 width="1020.000000pt" height="1020.000000pt" viewBox="0 0 1020.000000 1020.000000"
 preserveAspectRatio="xMidYMid meet">

<g transform="translate(0.000000,1020.000000) scale(0.100000,-0.100000)"
fill="#000000" stroke="none">
<path d="M6025 8086 c-59 -27 -99 -70 -131 -141 -13 -27 -499 -1278 -1080
-2780 -1009 -2606 -1058 -2733 -1062 -2805 -3 -68 -1 -80 25 -130 34 -64 104
-122 170 -140 95 -27 223 14 286 92 20 25 348 860 1093 2784 586 1512 1072
2775 1080 2808 34 129 -23 255 -143 315 -61 30 -170 29 -238 -3z m175 -151
c37 -19 50 -43 50 -91 0 -26 -329 -887 -1051 -2753 -578 -1494 -1061 -2740
-1074 -2769 -19 -42 -32 -56 -62 -68 -77 -33 -160 26 -150 106 3 19 485 1275
1071 2790 822 2125 1072 2760 1092 2778 30 26 81 29 124 7z"/>
<path d="M3575 7069 c-41 -16 29 39 -1188 -918 -599 -470 -1100 -869 -1114
-888 -76 -99 -69 -258 15 -346 52 -56 2203 -1742 2257 -1771 144 -76 329 0
381 156 30 90 6 200 -57 268 -13 14 -453 362 -976 774 -524 412 -953 752 -952
755 0 3 435 348 966 766 1097 863 1028 800 1028 945 0 59 -5 84 -23 120 -52
99 -119 142 -231 147 -42 1 -89 -2 -106 -8z m146 -166 c43 -26 64 -77 50 -123
-10 -34 -109 -115 -1056 -860 l-1045 -822 28 -22 c15 -13 473 -373 1017 -801
545 -428 1004 -791 1021 -807 18 -17 35 -43 38 -60 7 -37 -14 -90 -45 -112
-27 -19 -81 -21 -112 -4 -27 14 -2150 1679 -2194 1721 -38 35 -51 84 -33 126
8 21 322 273 1083 873 589 464 1091 858 1115 876 51 36 89 41 133 15z"/>
<path d="M6445 7067 c-95 -38 -156 -109 -176 -205 -14 -70 0 -141 39 -201 19
-29 299 -256 987 -797 528 -415 960 -761 960 -767 0 -6 -424 -344 -942 -751
-518 -408 -955 -754 -972 -770 -66 -63 -93 -169 -67 -258 31 -109 108 -178
220 -199 68 -12 150 7 206 49 19 14 527 413 1128 886 844 664 1099 869 1117
901 39 66 49 133 31 205 -9 34 -28 78 -42 98 -25 35 -2161 1724 -2259 1786
-39 25 -58 30 -123 33 -45 1 -89 -2 -107 -10z m138 -159 c35 -18 2169 -1697
2205 -1734 35 -37 43 -88 19 -131 -7 -12 -511 -414 -1120 -893 -1082 -850
-1109 -870 -1151 -870 -62 0 -106 41 -106 100 0 23 4 49 10 59 5 10 477 386
1049 836 572 450 1038 822 1035 826 -2 4 -466 371 -1029 814 -564 443 -1034
818 -1045 832 -66 85 38 212 133 161z"/>
</g>
</svg>
