<svg xmlns="http://www.w3.org/2000/svg" xmlns:xlink="http://www.w3.org/1999/xlink" width="1020" zoomAndPan="magnify" viewBox="0 0 765 764.999999" height="1020" preserveAspectRatio="xMidYMid meet" version="1.0"><defs><clipPath id="73b0720bfd"><path d="M 469 233 L 674.382812 233 L 674.382812 532 L 469 532 Z M 469 233 " clip-rule="nonzero"/></clipPath><clipPath id="d37fc16bae"><path d="M 280 156.132812 L 482 156.132812 L 482 609.132812 L 280 609.132812 Z M 280 156.132812 " clip-rule="nonzero"/></clipPath></defs><rect x="-76.5" width="918" fill="#ffffff" y="-76.5" height="917.999999" fill-opacity="1"/><rect x="-76.5" width="918" fill="#ffffff" y="-76.5" height="917.999999" fill-opacity="1"/><rect x="-76.5" width="918" fill="#ffffff" y="-76.5" height="917.999999" fill-opacity="1"/><path fill="#87f600" d="M 274.988281 525.476562 C 271.761719 525.476562 268.585938 524.390625 266.050781 522.375 L 102.886719 393.980469 C 99.375 391.226562 97.367188 387.089844 97.367188 382.632812 C 97.367188 378.175781 99.375 374.039062 102.875 371.257812 L 266.050781 242.890625 C 268.585938 240.875 271.761719 239.789062 274.988281 239.789062 C 279.441406 239.789062 283.601562 241.785156 286.335938 245.304688 C 288.722656 248.332031 289.804688 252.125 289.335938 255.941406 C 288.894531 259.78125 286.949219 263.203125 283.921875 265.589844 L 135.214844 382.632812 L 283.921875 499.648438 C 286.949219 502.0625 288.894531 505.484375 289.335938 509.300781 C 289.804688 513.140625 288.722656 516.90625 286.335938 519.960938 C 283.601562 523.457031 279.441406 525.476562 274.988281 525.476562 " fill-opacity="1" fill-rule="nonzero"/><path fill="#033123" d="M 274.988281 233.636719 C 270.382812 233.636719 265.878906 235.1875 262.261719 238.042969 L 99.078125 366.433594 C 94.070312 370.398438 91.214844 376.28125 91.214844 382.632812 C 91.214844 388.984375 94.089844 394.894531 99.078125 398.832031 L 262.261719 527.222656 C 265.855469 530.054688 270.382812 531.628906 274.988281 531.628906 C 281.363281 531.628906 287.269531 528.75 291.183594 523.75 C 294.605469 519.445312 296.105469 514.050781 295.46875 508.585938 C 294.800781 503.121094 292.070312 498.222656 287.738281 494.824219 L 145.160156 382.632812 L 287.738281 270.441406 C 292.070312 267.019531 294.800781 262.144531 295.46875 256.679688 C 296.105469 251.214844 294.605469 245.820312 291.183594 241.488281 C 287.269531 236.492188 281.335938 233.636719 274.988281 233.636719 Z M 274.988281 245.945312 C 277.449219 245.945312 279.886719 247.027344 281.507812 249.097656 C 284.363281 252.714844 283.726562 257.933594 280.132812 260.765625 L 125.246094 382.632812 L 280.132812 504.5 C 283.726562 507.332031 284.363281 512.550781 281.507812 516.144531 C 279.886719 518.238281 277.449219 519.320312 274.988281 519.320312 C 273.1875 519.320312 271.390625 518.753906 269.867188 517.546875 L 106.683594 389.15625 C 104.695312 387.582031 103.523438 385.167969 103.523438 382.632812 C 103.523438 380.074219 104.695312 377.683594 106.683594 376.109375 L 269.867188 247.71875 C 271.367188 246.511719 273.1875 245.945312 274.988281 245.945312 " fill-opacity="1" fill-rule="nonzero"/><path fill="#87f600" d="M 490.28125 525.476562 C 485.824219 525.476562 481.6875 523.457031 478.90625 519.960938 C 473.984375 513.707031 475.066406 504.597656 481.34375 499.648438 L 630.078125 382.632812 L 481.34375 265.589844 C 475.066406 260.667969 473.984375 251.558594 478.90625 245.304688 C 481.6875 241.785156 485.824219 239.789062 490.28125 239.789062 C 493.503906 239.789062 496.679688 240.875 499.214844 242.890625 L 662.398438 371.257812 C 665.894531 374.039062 667.886719 378.175781 667.886719 382.632812 C 667.886719 387.089844 665.894531 391.226562 662.371094 393.980469 L 499.214844 522.375 C 496.679688 524.390625 493.503906 525.476562 490.28125 525.476562 " fill-opacity="1" fill-rule="nonzero"/><g clip-path="url(#73b0720bfd)"><path fill="#033123" d="M 490.28125 233.636719 C 483.929688 233.636719 478.023438 236.492188 474.082031 241.488281 C 467.042969 250.425781 468.59375 263.398438 477.527344 270.441406 L 620.105469 382.632812 L 477.527344 494.824219 C 468.59375 501.839844 467.042969 514.839844 474.082031 523.753906 C 478.023438 528.75 483.929688 531.628906 490.28125 531.628906 C 494.882812 531.628906 499.386719 530.054688 503.007812 527.222656 L 666.1875 398.832031 C 671.1875 394.894531 674.042969 388.984375 674.042969 382.632812 C 674.042969 376.28125 671.1875 370.398438 666.214844 366.433594 L 503.03125 238.042969 C 499.414062 235.1875 494.882812 233.636719 490.28125 233.636719 Z M 490.28125 245.945312 C 492.078125 245.945312 493.898438 246.511719 495.402344 247.71875 L 658.582031 376.109375 C 660.574219 377.683594 661.734375 380.070312 661.734375 382.632812 C 661.734375 385.167969 660.574219 387.582031 658.582031 389.15625 L 495.402344 517.546875 C 493.898438 518.753906 492.078125 519.320312 490.28125 519.320312 C 487.820312 519.320312 485.382812 518.238281 483.757812 516.144531 C 480.925781 512.550781 481.542969 507.332031 485.136719 504.5 L 640.019531 382.632812 L 485.136719 260.765625 C 481.542969 257.933594 480.925781 252.714844 483.757812 249.097656 C 485.382812 247.027344 487.84375 245.945312 490.28125 245.945312 " fill-opacity="1" fill-rule="nonzero"/></g><path fill="#87f600" d="M 301.546875 602.953125 C 299.75 602.953125 298.003906 602.609375 296.328125 601.96875 C 292.734375 600.566406 289.878906 597.855469 288.328125 594.335938 C 286.753906 590.792969 286.679688 586.875 288.058594 583.28125 L 447.421875 171.542969 C 449.566406 166.03125 454.980469 162.3125 460.886719 162.3125 C 462.6875 162.3125 464.457031 162.65625 466.132812 163.296875 C 473.542969 166.175781 477.257812 174.574219 474.378906 182.007812 L 315.039062 593.722656 C 312.894531 599.234375 307.457031 602.953125 301.546875 602.953125 " fill-opacity="1" fill-rule="nonzero"/><g clip-path="url(#d37fc16bae)"><path fill="#033123" d="M 460.886719 156.15625 C 452.445312 156.15625 444.714844 161.476562 441.6875 169.328125 L 282.320312 581.042969 C 280.351562 586.1875 280.476562 591.777344 282.691406 596.824219 C 284.929688 601.84375 288.96875 605.734375 294.113281 607.703125 C 296.5 608.640625 298.988281 609.109375 301.546875 609.109375 C 309.992188 609.109375 317.71875 603.816406 320.773438 595.9375 L 480.113281 184.222656 C 484.226562 173.613281 478.933594 161.648438 468.324219 157.5625 C 465.960938 156.625 463.449219 156.15625 460.886719 156.15625 Z M 460.886719 168.46875 C 461.898438 168.46875 462.90625 168.664062 463.890625 169.035156 C 468.175781 170.683594 470.292969 175.484375 468.644531 179.765625 L 309.277344 591.480469 C 308.019531 594.78125 304.871094 596.796875 301.546875 596.796875 C 300.539062 596.796875 299.527344 596.625 298.542969 596.230469 C 294.261719 594.582031 292.144531 589.757812 293.816406 585.496094 L 453.160156 173.785156 C 454.4375 170.484375 457.566406 168.46875 460.886719 168.46875 " fill-opacity="1" fill-rule="nonzero"/></g></svg>